<svg width="19" height="20" viewBox="0 0 19 20" fill="none" xmlns="http://www.w3.org/2000/svg">
<path d="M18.333 12.9759V8.543C18.333 4.51579 18.333 2.50219 17.1393 1.25109C15.9457 0 14.0245 0 10.1821 0H8.48395C4.64156 0 2.72036 0 1.52669 1.25109C0.333008 2.50219 0.333008 4.51579 0.333008 8.543V12.9759C0.333008 16.4701 0.333008 18.2172 0.999641 19.0208C1.55921 19.6953 2.38849 20.0553 3.23924 19.9931C4.25277 19.9189 5.43146 18.6835 7.78885 16.2127C8.33363 15.6417 8.60602 15.3563 8.92082 15.2512C9.18898 15.1617 9.47704 15.1617 9.74519 15.2512C10.06 15.3563 10.3324 15.6417 10.8772 16.2127C13.2346 18.6835 14.4132 19.9189 15.4268 19.9931C16.2775 20.0553 17.1068 19.6953 17.6664 19.0208C18.333 18.2172 18.333 16.4701 18.333 12.9759Z" fill="#151219"/>
</svg>
